<svg width="416" height="134" viewBox="0 0 416 134" fill="none" xmlns="http://www.w3.org/2000/svg">
<path d="M77.5972 86.474C77.5972 91.1638 76.6265 95.5103 74.6852 99.5138C72.7438 103.517 70.1173 107.177 66.8056 110.495C63.4938 113.697 59.6111 116.557 55.1574 119.073C50.8179 121.475 46.1929 123.534 41.2824 125.25C36.4861 126.851 31.5185 128.11 26.3796 129.025C21.3549 129.825 16.5015 130.226 11.8194 130.226C7.59414 130.226 3.65432 129.883 0 129.196C5.48148 109.179 9.82099 89.0477 13.0185 68.8018C16.3302 48.4415 19.4707 27.9668 22.4398 7.37775C28.3781 6.11953 34.5448 5.03288 40.9398 4.11782C47.3349 3.08837 53.9583 2.57364 60.8102 2.57364C63.6651 2.57364 66.6914 2.91679 69.8889 3.60309C73.0864 4.28939 75.9985 5.54761 78.625 7.37775C81.2516 9.20789 83.4213 11.6099 85.1343 14.5839C86.9614 17.5579 87.875 21.3326 87.875 25.9079C87.875 30.2545 87.1327 34.3151 85.6482 38.0898C84.2778 41.8644 82.4506 45.2959 80.1667 48.3843C77.9969 51.4726 75.4846 54.1607 72.6296 56.4483C69.7747 58.6216 66.8627 60.2802 63.8935 61.424C65.3781 62.2247 66.9198 63.3685 68.5185 64.8555C70.1173 66.3425 71.6019 68.1155 72.9722 70.1744C74.3426 72.1189 75.4275 74.4638 76.2269 77.209C77.1404 79.9542 77.5972 83.0425 77.5972 86.474ZM38.3704 68.6302C37.9136 71.3754 37.4568 73.8346 37 76.0079C36.6574 78.0668 36.3148 80.0686 35.9722 82.0131C35.6296 83.9576 35.2299 86.0165 34.7732 88.1898C34.4306 90.2487 34.0309 92.708 33.5741 95.5676C35.7438 95.3388 38.1991 94.9384 40.9398 94.3665C43.6806 93.7946 46.3071 92.9367 48.8194 91.7929C51.3318 90.5347 53.4445 88.9333 55.1574 86.9888C56.8704 84.9299 57.7269 82.4706 57.7269 79.611C57.7269 77.5521 57.1559 75.8364 56.0139 74.4638C54.9861 73.0912 53.6157 71.9473 51.9028 71.0323C50.304 70.1172 48.534 69.4881 46.5926 69.1449C44.6512 68.6874 42.8241 68.4586 41.1111 68.4586C40.5401 68.4586 40.0262 68.4586 39.5694 68.4586C39.2269 68.4586 38.8272 68.5158 38.3704 68.6302ZM46.0787 27.1089C45.8503 28.3672 45.5648 29.8541 45.2222 31.5699C44.9938 33.2856 44.7083 35.1158 44.3657 37.0603C44.0232 38.8904 43.6235 40.7206 43.1667 42.5507C42.8241 44.3809 42.5386 45.9822 42.3102 47.3548C44.8225 46.8973 47.3349 46.2682 49.8472 45.4675C52.3596 44.6668 54.5864 43.8089 56.5278 42.8939C58.5833 41.8644 60.1821 40.7778 61.3241 39.6339C62.5803 38.4901 63.2083 37.2319 63.2083 35.8593C63.2083 34.1435 62.6945 32.7709 61.6667 31.7415C60.6389 30.5976 59.2685 29.6826 57.5556 28.9963C55.9568 28.31 54.2438 27.8524 52.4167 27.6237C50.7037 27.2805 49.162 27.1089 47.7917 27.1089H46.0787Z" fill="#DD005C"/>
<path d="M169.367 36.7172C169.367 46.0966 168.339 54.9613 166.283 63.3114C164.342 71.547 161.715 79.1535 158.404 86.1309C155.092 92.9939 151.209 99.1706 146.755 104.661C142.416 110.037 137.848 114.67 133.052 118.559C128.255 122.333 123.402 125.25 118.492 127.309C113.581 129.254 108.899 130.226 104.445 130.226C100.677 130.226 97.2508 129.539 94.1675 128.167C91.0841 126.68 88.4005 124.564 86.1165 121.819C83.8326 118.959 82.0054 115.356 80.6351 111.009C79.3789 106.548 78.7508 101.23 78.7508 95.0528C78.7508 88.6473 79.5502 81.8987 81.149 74.8069C82.7477 67.7151 84.9175 60.6805 87.6582 53.7031C90.3989 46.7257 93.7678 40.0915 97.7647 33.8004C101.762 27.5093 106.158 21.9617 110.955 17.1576C115.751 12.2391 120.89 8.35001 126.371 5.49042C131.853 2.63083 137.563 1.20103 143.501 1.20103C148.64 1.20103 152.865 2.28768 156.177 4.46097C159.603 6.51987 162.229 9.26508 164.056 12.6966C165.998 16.0137 167.368 19.7884 168.167 24.0206C168.967 28.2528 169.367 32.485 169.367 36.7172ZM104.274 90.5919C104.274 91.8501 104.502 93.1655 104.959 94.5381C105.416 95.9107 106.044 97.1117 106.843 98.1412C107.643 99.1706 108.613 100.086 109.755 100.886C111.012 101.573 112.325 101.916 113.695 101.916C118.834 101.916 123.402 100.143 127.399 96.597C131.396 93.0511 134.708 88.7045 137.334 83.5573C139.961 78.41 141.959 72.9196 143.33 67.086C144.814 61.2525 145.556 55.9336 145.556 51.1295C145.556 49.7569 145.442 48.2699 145.214 46.6685C145.1 45.0672 144.757 43.5802 144.186 42.2076C143.729 40.835 142.93 39.6911 141.788 38.7761C140.76 37.7466 139.333 37.2319 137.505 37.2319C133.851 37.2319 130.482 38.147 127.399 39.9771C124.316 41.8072 121.518 44.2665 119.005 47.3548C116.607 50.3288 114.495 53.7603 112.667 57.6494C110.84 61.424 109.242 65.3131 107.871 69.3165C106.615 73.2055 105.701 77.0374 105.13 80.8121C104.559 84.5867 104.274 87.8466 104.274 90.5919Z" fill="#DD005C"/>
<path d="M253.844 36.7172C253.844 46.0966 252.816 54.9613 250.76 63.3114C248.819 71.547 246.192 79.1535 242.881 86.1309C239.569 92.9939 235.686 99.1706 231.233 104.661C226.893 110.037 222.325 114.67 217.529 118.559C212.733 122.333 207.879 125.25 202.969 127.309C198.058 129.254 193.376 130.226 188.922 130.226C185.154 130.226 181.728 129.539 178.645 128.167C175.561 126.68 172.878 124.564 170.594 121.819C168.31 118.959 166.483 115.356 165.112 111.009C163.856 106.548 163.228 101.23 163.228 95.0528C163.228 88.6473 164.027 81.8987 165.626 74.8069C167.225 67.7151 169.395 60.6805 172.135 53.7031C174.876 46.7257 178.245 40.0915 182.242 33.8004C186.239 27.5093 190.635 21.9617 195.432 17.1576C200.228 12.2391 205.367 8.35001 210.848 5.49042C216.33 2.63083 222.04 1.20103 227.978 1.20103C233.117 1.20103 237.342 2.28768 240.654 4.46097C244.08 6.51987 246.706 9.26508 248.534 12.6966C250.475 16.0137 251.845 19.7884 252.645 24.0206C253.444 28.2528 253.844 32.485 253.844 36.7172ZM188.751 90.5919C188.751 91.8501 188.98 93.1655 189.436 94.5381C189.893 95.9107 190.521 97.1117 191.321 98.1412C192.12 99.1706 193.091 100.086 194.233 100.886C195.489 101.573 196.802 101.916 198.172 101.916C203.311 101.916 207.879 100.143 211.876 96.597C215.873 93.0511 219.185 88.7045 221.811 83.5573C224.438 78.41 226.436 72.9196 227.807 67.086C229.291 61.2525 230.034 55.9336 230.034 51.1295C230.034 49.7569 229.919 48.2699 229.691 46.6685C229.577 45.0672 229.234 43.5802 228.663 42.2076C228.206 40.835 227.407 39.6911 226.265 38.7761C225.237 37.7466 223.81 37.2319 221.983 37.2319C218.328 37.2319 214.959 38.147 211.876 39.9771C208.793 41.8072 205.995 44.2665 203.483 47.3548C201.084 50.3288 198.972 53.7603 197.145 57.6494C195.317 61.424 193.719 65.3131 192.348 69.3165C191.092 73.2055 190.179 77.0374 189.608 80.8121C189.037 84.5867 188.751 87.8466 188.751 90.5919Z" fill="#DD005C"/>
<path d="M237.256 128.51C242.281 113.297 247.077 98.3699 251.645 83.7288C253.586 77.5521 255.585 71.0894 257.64 64.3408C259.696 57.5922 261.751 50.9007 263.807 44.2665C265.863 37.6322 267.747 31.2267 269.46 25.05C271.287 18.8733 272.886 13.1541 274.256 7.89247C280.537 7.89247 286.475 7.54932 292.071 6.86302C297.667 6.17672 303.719 5.54761 310.228 4.9757C309.886 7.49213 309.486 10.3517 309.029 13.5545C308.687 16.6428 308.23 19.9028 307.659 23.3343C307.202 26.7658 306.688 30.3117 306.117 33.9719C305.546 37.6322 304.861 42.322 304.062 48.0411C303.262 53.7603 302.177 60.9093 300.807 69.4881H303.034C306.346 60.7949 309.086 53.5887 311.256 47.8696C313.426 42.036 315.196 37.2891 316.566 33.6288C317.937 29.9685 319.307 26.4226 320.677 22.9911C322.162 19.4452 323.532 16.1281 324.788 13.0397C326.159 9.837 327.415 7.0346 328.557 4.63254C331.412 4.40378 334.096 4.11781 336.608 3.77466C339.12 3.43151 341.633 3.08836 344.145 2.74521C346.657 2.28768 349.17 1.88733 351.682 1.54418C354.309 1.08665 357.164 0.571918 360.247 0C359.105 6.63426 358.02 13.4401 356.992 20.4175C355.964 27.3949 355.051 34.3723 354.251 41.3497C353.452 48.2127 352.653 55.0185 351.853 61.7672C351.168 68.5158 350.54 74.9213 349.969 80.9836C348.599 95.1672 347.4 109.008 346.372 122.505L316.566 127.824C316.566 127.252 316.623 125.708 316.738 123.191C316.966 120.675 317.194 117.586 317.423 113.926C317.765 110.266 318.165 106.205 318.622 101.744C319.193 97.2833 319.707 92.8223 320.163 88.3614C320.734 83.9004 321.305 79.611 321.876 75.4932C322.447 71.261 323.018 67.6579 323.589 64.684H322.048C320.449 69.4881 318.679 74.5781 316.738 79.9542C314.796 85.2158 312.798 90.5919 310.742 96.0823C308.801 101.573 306.859 106.949 304.918 112.21C302.977 117.472 301.264 122.505 299.779 127.309C295.782 127.423 292.356 127.595 289.501 127.824C286.647 127.938 283.335 128.11 279.566 128.338L285.048 64.684H282.478C282.25 66.1709 281.679 68.6874 280.765 72.2333C279.852 75.6648 278.767 79.6682 277.511 84.2436C276.369 88.7045 275.113 93.3943 273.742 98.3128C272.372 103.117 271.059 107.635 269.802 111.867C268.66 115.985 267.69 119.417 266.89 122.162C266.091 124.793 265.634 126.28 265.52 126.623L237.256 128.51Z" fill="#DD005C"/>
<path d="M383.053 88.8761C379.742 88.8761 376.43 88.9905 373.118 89.2193C369.806 89.448 366.495 89.6768 363.183 89.9056C366.723 75.8364 370.149 61.8244 373.461 47.8696C376.887 33.9148 380.427 19.9028 384.081 5.83357C386.251 5.49042 388.706 5.14727 391.447 4.80411C394.302 4.46097 397.157 4.06063 400.012 3.60309C402.867 3.14555 405.607 2.74521 408.234 2.40206C410.975 2.05891 413.259 1.71576 415.086 1.37261C408.919 15.7849 403.266 30.3117 398.127 44.9528C393.103 59.4795 388.078 74.1206 383.053 88.8761ZM384.766 115.813C384.766 117.987 384.252 120.16 383.225 122.333C382.311 124.507 380.941 126.451 379.114 128.167C377.286 129.768 375.002 131.026 372.262 131.942C369.521 132.971 366.381 133.486 362.84 133.486C360.442 133.486 358.272 133.028 356.331 132.113C354.39 131.198 352.791 129.997 351.535 128.51C350.393 126.909 349.479 125.136 348.794 123.191C348.109 121.247 347.766 119.302 347.766 117.358C347.766 115.184 348.109 113.125 348.794 111.181C349.479 109.122 350.507 107.349 351.877 105.862C353.362 104.261 355.132 102.945 357.188 101.916C359.357 100.886 361.927 100.372 364.896 100.372C371.519 100.372 376.487 101.973 379.799 105.176C383.11 108.264 384.766 111.81 384.766 115.813Z" fill="#DD005C"/>
</svg>
