<svg width="277" height="277" viewBox="0 0 277 277" fill="none" xmlns="http://www.w3.org/2000/svg">
<path fill-rule="evenodd" clip-rule="evenodd" d="M277 106.905L193.467 153.216L242.375 216.406L174.856 190.87L177.02 261.419L137.634 202.556L108.203 277L105.606 195.631L34.1922 238.48L77.9062 161.006L0 143.261L80.9359 127.247L14.7156 66.6531L97.8156 94.3531L74.0109 0L129.844 75.7422L166.633 10.3875L160.141 89.5922L211.212 53.6687L183.08 111.233L277 106.905ZM171.827 130.709L151.052 140.231L161.006 155.38L145.858 148.455V163.603L137.634 151.051L130.277 167.931L129.844 149.753L109.069 163.603L122.486 142.828L103.442 138.5L124.217 133.739L107.77 119.456L128.113 124.65L122.919 104.74L135.038 120.322L143.261 104.74L142.828 123.351L154.947 116.426L148.888 130.276L171.827 130.709Z" fill="#AEAEAE"/>
<path fill-rule="evenodd" clip-rule="evenodd" d="M218.138 123.351L169.23 146.29L192.602 181.348L157.111 165.767L157.544 200.825L137.634 171.826L120.322 210.779L119.023 167.931L70.5485 200.825L102.144 152.35L57.1313 141.962L106.039 130.276L66.6532 96.5169L115.128 108.636L102.577 61.4591L131.575 98.681L150.619 62.3247L149.753 106.039L178.319 89.5919L164.036 122.053L218.138 123.351ZM171.827 130.709L151.052 140.231L161.006 155.38L145.858 148.455V163.603L137.634 151.051L130.277 167.931L129.844 149.753L109.069 163.603L122.486 142.828L103.442 138.5L124.217 133.739L107.77 119.456L128.113 124.65L122.919 104.74L135.038 120.322L143.261 104.74L142.828 123.351L154.947 116.426L148.888 130.276L171.827 130.709Z" fill="#D6D6D6"/>
</svg>
